<?xml version="1.0" ?><svg xmlns="http://www.w3.org/2000/svg" xmlns:xlink="http://www.w3.org/1999/xlink" version="1.1" viewBox="0 0 512 512" style="enable-background:new 0 0 512 512;" xml:space="preserve"><style type="text/css">
	.st0{fill:#231A15;}
	.st1{fill:#FFE000;}
	.st2{fill:#BCA100;}
	.st3{fill:#FC0000;}
	.st4{fill:#AA0000;}
	.st5{fill:#F94343;}
	.st6{fill:#FFFFFF;}
	.st7{fill:#A58E07;}
	.st8{opacity:0.44;}
	.st9{fill:#756204;}
	.st10{opacity:0.64;}
	.st11{opacity:0.38;}
	.st12{fill:#5D5004;}
	.st13{fill:#B7A100;}
	.st14{fill:#1D4DFC;}
	.st15{fill:#143CAF;}
	.st16{opacity:0.59;}
	.st17{opacity:0.52;}
	.st18{fill:#FF7F1F;}
	.st19{fill:#C4570C;}
	.st20{fill:#B29904;}
	.st21{fill:#87720A;}
	.st22{fill:#DDDDDD;}
	.st23{opacity:0.51;}
	.st24{fill:#878787;}
	.st25{fill:#727272;}
	.st26{opacity:0.33;}
	.st27{opacity:0.46;}
	.st28{fill:#25CBF2;}
	.st29{fill:#0A8FA5;}
	.st30{opacity:0.58;}
	.st31{fill:#04889E;}
	.st32{fill:#035A63;}
	.st33{opacity:0.65;}
	.st34{opacity:0.39;}
	.st35{fill:#AB0000;}
	.st36{fill:#1987A1;}
	.st37{fill:#3F1F0A;}
	.st38{fill:#4DEEFF;}
	.st39{fill:#21B9C1;}
	.st40{fill:#BBF9FF;}
	.st41{fill:#64ACAF;}
	.st42{fill:#089FB7;}
	.st43{opacity:0.47;}
	.st44{opacity:0.42;}
	.st45{fill:#DBF7FC;}
	.st46{fill:#B2E7ED;}
	.st47{fill:#0FA2BA;}
	.st48{opacity:0.54;}
	.st49{fill:#8E7716;}
	.st50{fill:#191401;}
	.st51{fill:#382E02;}
	.st52{fill:#605106;}
	.st53{fill:#AFACA0;}
	.st54{fill:#BC0404;}
	.st55{fill:#750000;}
	.st56{fill:#A08B0D;}
	.st57{fill:#5B4C05;}
	.st58{opacity:0.4;}
	.st59{opacity:0.5;}
	.st60{fill:#FF8383;}
	.st61{fill:#FFF0A6;}
	.st62{fill:#E2C227;}
	.st63{fill:#AA9205;}
	.st64{fill:#FFEA71;}
	.st65{opacity:0.22;}
	.st66{fill:#B19B00;}
	.st67{fill:#1989A4;}
	.st68{fill:#13A0B7;}
	.st69{fill:#C4A805;}
	.st70{fill:#FFF3A9;}
	.st71{fill:#846E03;}
	.st72{fill:#2D2502;}
	.st73{opacity:0.36;}
	.st74{fill:#4DD307;}
	.st75{fill:#328402;}
	.st76{fill:#97FF5A;}
	.st77{fill:#7A6500;}
	.st78{fill:#246001;}
	.st79{fill:#359100;}
	.st80{fill:#968022;}
	.st81{fill:#4F420B;}
	.st82{fill:#FFED83;}
	.st83{fill:#BAA335;}
	.st84{fill:#8D0991;}
	.st85{fill:#4B044F;}
	.st86{fill:#CE15CE;}
	.st87{fill:#897502;}
	.st88{fill:#493D01;}
	.st89{fill:#C9C9C9;}
	.st90{fill:#2D280E;}
	.st91{fill:#378C06;}
	.st92{fill:#183A03;}
	.st93{fill:#94FF55;}
	.st94{fill:#2E7F04;}
	.st95{fill:#63AB39;}
	.st96{fill:#AA5F04;}
	.st97{fill:#633502;}
	.st98{fill:#EF9014;}
	.st99{fill:#A05A07;}
	.st100{fill:#05616B;}
	.st101{fill:#033335;}
	.st102{fill:#0E94AA;}
	.st103{fill:#035D66;}
	.st104{opacity:0.27;}
	.st105{opacity:0.43;}
	.st106{fill:#FFF203;}
	.st107{fill:#FFA300;}
	.st108{fill:#2B3030;}
	.st109{opacity:0.28;}
	.st110{fill:#FCD17A;}
	.st111{fill:#AF853A;}
	.st112{opacity:0.31;}
	.st113{fill:#B641FF;}
	.st114{fill:#700FBC;}
	.st115{fill:#F2D0B1;}
	.st116{fill:#AF835F;}
	.st117{fill:#C17540;}
	.st118{fill:#F2BA94;}
	.st119{fill:#592909;}
	.st120{fill:#2B1204;}
	.st121{fill:#894818;}
	.st122{fill:#512609;}
	.st123{fill:#FF7F15;}
	.st124{fill:#A04A0A;}
	.st125{fill:#B7865E;}
	.st126{fill:#70350E;}
	.st127{fill:#3A1805;}
	.st128{fill:#C1521B;}
	.st129{fill:#FFC7AE;}
	.st130{fill:#FF717F;}
	.st131{fill:#6E2F0F;}
	.st132{fill:#AC8675;}
	.st133{opacity:0.25;}
	.st134{opacity:0.32;}
	.st135{fill:#FFFCC5;}
	.st136{fill:#D1CA78;}
	.st137{fill:#D37733;}
	.st138{fill:#A04F18;}
	.st139{fill:#0ABFBA;}
	.st140{fill:#057F79;}
	.st141{fill:#15F9F9;}
	.st142{fill:#09B2AD;}
	.st143{fill:#B2B2B2;}
	.st144{fill:#FFF755;}
	.st145{fill:#BCB121;}
	.st146{fill:#F90368;}
	.st147{opacity:0.49;}
	.st148{fill:#B50857;}
	.st149{fill:#FF76B4;}
	.st150{fill:#F23091;}
	.st151{fill:#FFF800;}
	.st152{fill:#C9BF05;}
	.st153{fill:#FF8500;}
	.st154{fill:#A35507;}
	.st155{fill:#AA6E50;}
	.st156{fill:#723C25;}
	.st157{fill:#EAD4B9;}
	.st158{fill:#AA8D6F;}
	.st159{fill:#B7A8A5;}
	.st160{fill:#84726F;}
	.st161{fill:#77645F;}
	.st162{fill:#51403C;}
	.st163{fill:#EABBA7;}
	.st164{fill:#BC7F69;}
	.st165{fill:#7C5039;}
	.st166{fill:#442619;}
	.st167{fill:#B7AE04;}
	.st168{fill:#BAB108;}
	.st169{fill:#7A7105;}
	.st170{fill:#352B23;}
	.st171{fill:#050403;}
	.st172{fill:#706255;}
	.st173{fill:#44382E;}
	.st174{fill:#634319;}
	.st175{fill:#35210A;}
	.st176{fill:#2D1C08;}
	.st177{fill:#0A0601;}
	.st178{fill:#9E7443;}
	.st179{fill:#704D2A;}
	.st180{fill:#D8A73A;}
	.st181{fill:#A0741C;}
	.st182{fill:#3F2F28;}
	.st183{fill:#211410;}
	.st184{fill:#FF326C;}
	.st185{fill:#BC0749;}
	.st186{fill:#68390E;}
	.st187{fill:#A5632D;}
	.st188{fill:#3D1E05;}
	.st189{fill:#331A06;}
	.st190{fill:#110801;}
	.st191{fill:#160A02;}
	.st192{fill:#663514;}
	.st193{opacity:0.29;}
	.st194{fill:#FC001F;}
	.st195{fill:#AF021F;}
	.st196{fill:#C48622;}
	.st197{fill:#8C5910;}
	.st198{fill:#846D64;}
	.st199{fill:#513B35;}
	.st200{fill:#5B4842;}
	.st201{fill:#332522;}
	.st202{fill:#47332C;}
	.st203{fill:#543E38;}
	.st204{fill:#1E1412;}
	.st205{fill:#604C43;}
	.st206{fill:#D3896C;}
	.st207{fill:#FF001F;}
	.st208{fill:#AF0824;}
	.st209{fill:#A37462;}
	.st210{fill:#5E3E34;}
	.st211{fill:#874A38;}
	.st212{fill:#4C2218;}
	.st213{fill:#5B2B20;}
	.st214{fill:#210C09;}
	.st215{fill:#99001A;}
	.st216{fill:#A08A07;}
	.st217{fill:#A08904;}
	.st218{fill:#5B4C02;}
	.st219{fill:#CECAB7;}
	.st220{fill:#727068;}
	.st221{fill:#42403A;}
	.st222{fill:#B2B0A6;}
	.st223{fill:#726F62;}
	.st224{fill:#6B4F45;}
	.st225{fill:#3A261F;}
	.st226{fill:#777468;}
	.st227{fill:#474436;}
	.st228{fill:#B78B7D;}
	.st229{fill:#845A4E;}
	.st230{fill:#3A372D;}
	.st231{fill:#43CFFF;}
	.st232{fill:#13A0BC;}
</style><g id="_x31_9"><g><path class="st0" d="M418.96,411.98c-1.64,0-3.31-0.04-5-0.12c-1.02-0.05-2.03-0.12-3.03-0.2l-0.94-0.09    c-0.68-0.06-1.36-0.14-2.04-0.22c-0.34-0.04-0.69-0.09-1.04-0.14c-0.65-0.09-1.31-0.19-1.96-0.3l-0.19-0.03    c-0.24-0.04-0.48-0.08-0.72-0.12c-0.83-0.15-1.64-0.31-2.44-0.48c-0.14-0.03-0.27-0.05-0.4-0.08c-0.87-0.19-1.76-0.41-2.65-0.64    c-0.24-0.06-0.46-0.12-0.68-0.19l-0.19-0.05c-0.59-0.16-1.2-0.34-1.81-0.52c-0.31-0.1-0.64-0.2-0.96-0.3    c-0.55-0.18-1.11-0.37-1.66-0.56l-0.15-0.05c-0.25-0.09-0.5-0.18-0.75-0.27c-0.64-0.24-1.27-0.49-1.9-0.74    c-0.24-0.09-0.42-0.16-0.59-0.24c-0.78-0.33-1.55-0.67-2.31-1.03c-0.22-0.1-0.43-0.21-0.63-0.31l-0.18-0.09    c-0.5-0.25-1.01-0.49-1.5-0.75c-0.3-0.15-0.61-0.32-0.91-0.49c-0.46-0.25-0.91-0.5-1.35-0.75c-0.32-0.18-0.62-0.35-0.91-0.53    c-0.45-0.27-0.91-0.56-1.37-0.85l-0.17-0.11c-0.19-0.11-0.37-0.23-0.55-0.35c-0.68-0.44-1.31-0.88-1.94-1.32    c-0.22-0.16-0.43-0.31-0.64-0.46l-0.19-0.14c-0.38-0.28-0.77-0.57-1.14-0.85c-0.29-0.22-0.59-0.46-0.89-0.7    c-0.33-0.27-0.67-0.54-0.99-0.81c-0.29-0.24-0.59-0.49-0.89-0.75c-0.31-0.27-0.62-0.55-0.94-0.83l-0.18-0.16    c-0.23-0.2-0.45-0.4-0.67-0.61c-0.52-0.48-1.03-0.97-1.53-1.47c-0.25-0.24-0.48-0.49-0.72-0.73l-0.17-0.17    c-0.29-0.3-0.51-0.53-0.73-0.76c-0.3-0.32-0.59-0.64-0.88-0.96c-0.21-0.24-0.43-0.48-0.65-0.73c-0.28-0.32-0.58-0.66-0.87-1    l-0.56-0.67c-1.04-1.27-2.06-2.6-3.03-3.95l-0.32-0.44c-0.3-0.43-0.59-0.85-0.87-1.26l-0.37-0.55c-0.27-0.41-0.55-0.83-0.82-1.26    l-0.27-0.44c-0.96-1.54-1.88-3.11-2.72-4.68c-0.01-0.03-0.03-0.05-0.04-0.08l0,0c-9.15-17.02-12.03-36.1-12.92-47.35H167.92    c-0.67,8.48-2.44,21.17-7.06,34.09c-11.1,31.01-32.83,48.13-62.83,49.51c-1.07,0.05-2.13,0.08-3.17,0.1    c-0.29,0.01-0.56,0.01-0.84,0l-0.68,0c-0.53,0-1.06,0.01-1.59,0c-0.37,0-0.71-0.02-1.05-0.03l-0.78-0.02    c-0.41-0.01-0.81-0.02-1.21-0.04c-0.4-0.02-0.79-0.04-1.18-0.07l-0.78-0.05c-0.34-0.02-0.68-0.04-1.02-0.06    c-0.42-0.03-0.84-0.07-1.26-0.11l-0.73-0.07c-0.31-0.03-0.62-0.06-0.92-0.09c-0.46-0.05-0.93-0.11-1.4-0.18l-0.6-0.08    c-0.28-0.03-0.56-0.07-0.84-0.11c-0.51-0.08-0.99-0.16-1.46-0.24l-0.57-0.1c-0.25-0.04-0.51-0.08-0.76-0.13    c-0.55-0.1-1.08-0.21-1.61-0.33l-0.44-0.09c-0.22-0.04-0.44-0.09-0.66-0.14c-0.62-0.14-1.18-0.28-1.75-0.43l-0.29-0.07    c-0.23-0.05-0.45-0.11-0.67-0.17c-0.56-0.15-1.13-0.32-1.7-0.49l-0.28-0.08c-0.2-0.06-0.41-0.12-0.61-0.18    c-0.62-0.19-1.23-0.4-1.85-0.62l-0.13-0.04c-0.18-0.06-0.35-0.12-0.53-0.18c-0.65-0.23-1.28-0.48-1.9-0.72    c-0.24-0.09-0.41-0.16-0.57-0.22c-0.65-0.26-1.27-0.54-1.89-0.82c-0.22-0.09-0.4-0.17-0.57-0.25c-0.58-0.27-1.21-0.58-1.83-0.89    c-0.16-0.08-0.32-0.15-0.47-0.24c-0.6-0.31-1.21-0.65-1.83-1c-0.15-0.08-0.29-0.16-0.43-0.24c-0.6-0.34-1.21-0.72-1.82-1.11    l-0.3-0.19c-0.62-0.4-1.21-0.8-1.8-1.21c-0.13-0.09-0.25-0.17-0.38-0.26c-0.54-0.38-1.12-0.82-1.7-1.26    c-0.11-0.08-0.21-0.15-0.3-0.23c-0.58-0.46-1.16-0.93-1.72-1.41l-0.21-0.18c-0.56-0.48-1.12-0.99-1.67-1.51l-0.14-0.13    c-0.58-0.55-1.12-1.08-1.64-1.62l-0.09-0.09c-0.03-0.03-0.05-0.05-0.08-0.08c-0.54-0.56-1.07-1.14-1.59-1.72l-0.08-0.09    c-0.53-0.61-1.03-1.2-1.52-1.8c-0.02-0.03-0.04-0.05-0.06-0.07c-0.55-0.68-1.03-1.31-1.51-1.96c-0.02-0.03-0.04-0.06-0.06-0.08    c-0.47-0.64-0.93-1.3-1.38-1.97c0,0,0,0,0-0.01c-0.01-0.01-0.02-0.02-0.02-0.03c0,0,0-0.01-0.01-0.01    c-0.01-0.01-0.01-0.02-0.02-0.03c-0.48-0.72-0.91-1.39-1.32-2.06c-0.01-0.02-0.02-0.04-0.04-0.06l0,0    c-0.44-0.71-0.86-1.44-1.27-2.17c-0.01-0.02-0.02-0.03-0.03-0.05c-1.8-3.23-3.4-6.77-4.74-10.51c-0.01-0.03-0.04-0.13-0.06-0.16    c-0.28-0.8-0.56-1.61-0.83-2.44c-0.01-0.03-0.04-0.14-0.05-0.17c-0.28-0.87-0.52-1.67-0.75-2.48l-0.08-0.3    c-0.23-0.8-0.44-1.6-0.65-2.41l-0.08-0.33c-0.2-0.82-0.4-1.62-0.58-2.44l-0.08-0.38c-0.18-0.8-0.34-1.62-0.5-2.45l-0.07-0.38    c-0.16-0.82-0.3-1.66-0.45-2.5l-0.06-0.39c-0.14-0.84-0.27-1.7-0.39-2.58L27,351.8c-0.12-0.88-0.23-1.79-0.34-2.7l-0.03-0.25    c-0.11-0.95-0.21-1.91-0.29-2.88l-0.02-0.19c-0.62-6.87-0.77-14.46-0.43-22.48l0.02-0.42c0.04-0.96,0.09-1.93,0.15-2.9l0.05-0.74    c0.05-0.87,0.11-1.75,0.17-2.63l0.07-0.93c0.06-0.82,0.13-1.65,0.2-2.48l0.1-1.07c0.07-0.79,0.14-1.58,0.22-2.38l0.12-1.18    c0.08-0.77,0.16-1.54,0.25-2.32l0.14-1.26c0.09-0.76,0.18-1.51,0.27-2.27l0.17-1.34c0.09-0.73,0.19-1.48,0.29-2.23l0.19-1.41    c0.1-0.72,0.21-1.46,0.32-2.19l0.22-1.46c0.11-0.73,0.23-1.46,0.34-2.19l0.24-1.49c0.12-0.74,0.24-1.48,0.37-2.21l0.26-1.52    c0.13-0.73,0.26-1.47,0.39-2.21l0.28-1.54c0.14-0.75,0.28-1.51,0.42-2.26l0.29-1.53c0.15-0.78,0.31-1.57,0.46-2.36l0.29-1.45    c0.15-0.74,0.3-1.49,0.46-2.23l0.33-1.61c0.27-1.29,0.55-2.58,0.83-3.88c8.41-38.29,17.1-77.89,30.39-108.01    c15.61-35.36,36.29-53.88,63.22-56.61c48.72-4.95,81.71-2.35,86.33-1.94l84.58,0l2.56-0.2c0.7-0.05,1.57-0.11,2.57-0.17l1.25-0.07    c1.23-0.07,2.57-0.14,4.05-0.2c5.42-0.24,11.2-0.36,17.22-0.38c2.3-0.01,4.71,0,7.23,0.03c0.02,0,0.04,0,0.06,0    c0.83,0.01,1.64,0.02,2.46,0.03l0.35,0.01c2.48,0.04,5.06,0.1,7.75,0.19l0.37,0.01c0.81,0.03,1.63,0.05,2.47,0.08l0.78,0.03    c11.08,0.42,22.45,1.18,33.8,2.27l0.47,0.05c0.95,0.09,1.89,0.18,2.85,0.28c26.94,2.73,47.62,21.25,63.22,56.61    c13.29,30.11,21.98,69.71,30.39,108.01l0,0c13.25,60.34,10.27,100.84-9.1,123.82C457.59,405.08,440.74,411.98,418.96,411.98z     M405.45,390.67c0.13,0.03,0.25,0.05,0.37,0.08c0.5,0.11,1.09,0.22,1.69,0.33l0.67,0.11c0.49,0.08,0.96,0.15,1.44,0.22    c0.26,0.04,0.5,0.07,0.74,0.1c0.52,0.06,1.03,0.12,1.54,0.17l0.71,0.07c0.73,0.06,1.49,0.12,2.25,0.15    c17.92,0.82,30.66-3.53,38.92-13.33c14.88-17.65,16.51-53.53,4.86-106.64c-8.2-37.33-16.67-75.94-29.15-104.22    c-12.62-28.59-27.54-42.82-46.95-44.79c-0.92-0.09-1.83-0.18-2.75-0.27l-0.48-0.05c-10.96-1.05-21.94-1.79-32.65-2.19l-3.5-0.12    c-2.57-0.08-5.06-0.14-7.46-0.18l-0.3,0c-0.82-0.01-1.6-0.02-2.37-0.03c-0.01,0-0.03,0-0.04,0c-2.46-0.03-4.77-0.04-6.97-0.03    c-5.77,0.02-11.29,0.14-16.4,0.36c-1.43,0.06-2.69,0.12-3.81,0.19l-1.05,0.06c0,0-0.13,0.01-0.14,0.01    c-0.92,0.06-1.72,0.11-2.4,0.16l-2.35,0.18c-0.04,0-0.26,0.02-0.29,0.03c-0.33,0.03-0.58,0.04-0.91,0.04h-85.44    c-0.32,0-0.65-0.02-0.97-0.05c-0.32-0.03-33.51-3.12-82.88,1.89c-19.41,1.97-34.33,16.2-46.95,44.79    c-12.48,28.28-20.96,66.88-29.15,104.22c-0.27,1.24-0.54,2.48-0.8,3.71l-0.32,1.56c-0.15,0.71-0.29,1.42-0.44,2.12l-0.27,1.39    c-0.15,0.75-0.3,1.5-0.44,2.25l-0.27,1.45c-0.14,0.72-0.27,1.44-0.4,2.15L50.11,288c-0.13,0.71-0.25,1.41-0.37,2.11l-0.24,1.43    c-0.12,0.7-0.24,1.4-0.35,2.09l-0.22,1.41c-0.11,0.69-0.22,1.38-0.32,2.07l-0.21,1.38c-0.1,0.68-0.2,1.37-0.3,2.06l-0.18,1.32    c-0.09,0.69-0.19,1.39-0.27,2.08l-0.16,1.25c-0.09,0.71-0.17,1.41-0.25,2.11l-0.13,1.18c-0.08,0.72-0.16,1.44-0.23,2.15    l-0.11,1.08c-0.07,0.74-0.14,1.47-0.21,2.2l-0.09,0.99c-0.07,0.77-0.12,1.53-0.18,2.28l-0.06,0.85c-0.06,0.81-0.11,1.62-0.16,2.41    l-0.04,0.67c-0.05,0.89-0.09,1.77-0.13,2.64l-0.02,0.37c-0.3,7.17-0.18,13.86,0.37,19.92c0,0.02,0.01,0.1,0.01,0.11    c0.07,0.82,0.16,1.63,0.25,2.44l0.03,0.23c0.09,0.75,0.18,1.51,0.28,2.26l0.04,0.26c0.1,0.75,0.21,1.46,0.33,2.17l0.05,0.31    c0.11,0.69,0.23,1.37,0.36,2.05l0.04,0.23c0.15,0.75,0.28,1.41,0.43,2.06l0.06,0.29c0.15,0.65,0.3,1.29,0.45,1.92l0.07,0.3    c0.16,0.62,0.33,1.24,0.5,1.86l0.07,0.26c0.17,0.6,0.36,1.22,0.55,1.83l0.06,0.2c0.2,0.61,0.41,1.23,0.63,1.84    c0.01,0.02,0.04,0.11,0.05,0.14c0.97,2.7,2.12,5.25,3.4,7.55c0.01,0.01,0.01,0.02,0.02,0.04c0.27,0.48,0.54,0.95,0.83,1.41    c0.01,0.01,0.01,0.02,0.02,0.03c0.29,0.48,0.58,0.93,0.88,1.37c0.01,0.02,0.03,0.04,0.04,0.06l0,0c0.3,0.44,0.6,0.88,0.92,1.31    c0.03,0.04,0.07,0.09,0.09,0.12c0.25,0.35,0.56,0.74,0.87,1.14c0.02,0.02,0.03,0.04,0.05,0.06c0.35,0.44,0.68,0.82,1,1.2    l0.08,0.09c0.32,0.37,0.64,0.72,0.97,1.06l0.07,0.07c0.38,0.4,0.72,0.73,1.06,1.06l0.13,0.12c0.34,0.32,0.68,0.63,1.03,0.93    c0.05,0.04,0.11,0.09,0.13,0.11c0.39,0.33,0.74,0.63,1.11,0.91l0.18,0.14c0.34,0.26,0.7,0.54,1.07,0.8l0.21,0.15    c0.36,0.25,0.72,0.5,1.09,0.74l0.21,0.13c0.43,0.27,0.81,0.5,1.19,0.73l0.3,0.16c0.36,0.2,0.75,0.42,1.15,0.63l0.3,0.15    c0.42,0.21,0.82,0.41,1.23,0.6l0.35,0.15c0.41,0.18,0.82,0.37,1.25,0.54l0.39,0.15c0.41,0.16,0.83,0.33,1.26,0.48l0.48,0.16    c0.39,0.14,0.81,0.28,1.24,0.42l0.63,0.18c0.39,0.12,0.78,0.23,1.18,0.34l0.7,0.17c0.4,0.1,0.8,0.2,1.2,0.29l0.87,0.18    c0.36,0.08,0.72,0.15,1.09,0.22l1.09,0.18c0.33,0.06,0.65,0.11,0.98,0.16l1.21,0.16c0.3,0.04,0.6,0.08,0.91,0.12    c0.18,0.02,0.35,0.03,0.51,0.05l0.92,0.09c0.27,0.03,0.54,0.05,0.81,0.07c0.2,0.02,0.4,0.03,0.61,0.04l0.98,0.06    c0.24,0.02,0.49,0.03,0.74,0.04c0.27,0.01,0.53,0.02,0.8,0.02l0.98,0.03c0.21,0.01,0.43,0.01,0.65,0.02c0.37,0,0.78,0,1.17,0    l1.33,0c0.85-0.01,1.71-0.04,2.59-0.08c21.71-1,36.35-12.72,44.76-35.82c6.76-18.57,6.46-37.4,6.45-37.58    c-0.06-2.69,0.97-5.29,2.85-7.21c1.88-1.92,4.46-3.01,7.14-3.01h195.36c2.7,0,5.29,1.09,7.17,3.03c1.86,1.92,2.88,4.5,2.83,7.18    c0,0.01,0,0.02,0,0.04l0,0.29c0,0.03,0,0.15,0,0.18l0,0.32c0,0.01,0,0.11,0,0.12l0,0.25c0,0.01,0,0.11,0,0.12    c0.01,0.76,0.03,1.76,0.09,2.99l0.04,0.78c0,0,0.01,0.13,0.01,0.13l0.04,0.78c0,0.04,0,0.07,0.01,0.09    c0.55,9.07,2.68,26.54,10.71,41.52c0.01,0.02,0.03,0.05,0.04,0.07c0.65,1.21,1.36,2.43,2.1,3.61l0.22,0.36    c0.19,0.3,0.4,0.61,0.6,0.93l0.27,0.41c0.2,0.3,0.41,0.61,0.63,0.92l0.24,0.33c0.71,0.99,1.45,1.96,2.2,2.87l0.39,0.48    c0.2,0.24,0.41,0.48,0.62,0.71c0.16,0.18,0.31,0.35,0.45,0.51c0.21,0.24,0.42,0.47,0.64,0.69c0.14,0.15,0.29,0.3,0.43,0.45    c0,0,0.07,0.07,0.07,0.07l0.2,0.21c0.14,0.15,0.28,0.29,0.43,0.44c0.34,0.34,0.7,0.68,1.06,1.02c0.12,0.11,0.23,0.21,0.35,0.31    l0.24,0.21c0.22,0.19,0.42,0.38,0.64,0.56c0.2,0.17,0.41,0.34,0.61,0.51c0.23,0.19,0.45,0.37,0.67,0.55    c0.2,0.16,0.4,0.32,0.61,0.48c0.26,0.2,0.51,0.38,0.76,0.57l0.57,0.42c0.42,0.3,0.86,0.6,1.31,0.89l0.49,0.31    c0.31,0.2,0.62,0.39,0.94,0.58c0.19,0.11,0.36,0.21,0.54,0.31c0.37,0.21,0.68,0.38,0.98,0.55c0.19,0.1,0.39,0.21,0.6,0.32    c0.35,0.18,0.69,0.35,1.04,0.52l0.54,0.26c0.51,0.24,1.04,0.48,1.58,0.7l0.36,0.14c0.45,0.18,0.88,0.35,1.32,0.52l0.64,0.23    c0.37,0.13,0.76,0.26,1.15,0.39c0.23,0.07,0.45,0.14,0.67,0.21c0.43,0.13,0.84,0.25,1.26,0.37l0.61,0.17    C404.21,390.38,404.82,390.53,405.45,390.67z M65.83,385.27C65.83,385.27,65.83,385.27,65.83,385.27L65.83,385.27z M65.74,385.22    L65.74,385.22L65.74,385.22z"/></g><g><g><g><path class="st1" d="M468.42,269.77c-17.36-79.07-33.75-151.62-84.86-156.81c-51.11-5.19-84.86-1.89-84.86-1.89h-85.44      c0,0-33.75-3.3-84.86,1.89c-51.11,5.19-67.5,77.74-84.86,156.81c-17.36,79.07-8.68,135,54,132.11      c62.68-2.89,60.75-83.62,60.75-83.62h195.36c0,0-1.93,80.72,60.75,83.62C477.1,404.77,485.78,348.84,468.42,269.77z"/></g><g><path class="st2" d="M158.31,318.26c0,0,1.93,80.72-60.75,83.62c-31.09,1.43-48.88-11.61-56.82-34.76      c13.39,9.75,32.23,18.42,54.98,14.86c41.87-6.55,43.3-90.5,43.3-90.5l202.89-3.97l10.62,30.75H158.31z M468.42,269.77      c-17.36-79.07-33.75-151.62-84.86-156.81c-1.1-0.11-2.19-0.21-3.27-0.32c12.83,10.01,30.83,32.92,45.12,85.39      c25.07,91.99,34.71,149.65-3.86,167.59c-22.94,10.67-43.15,8.65-55.76,5.26c8.63,16.05,23.39,29.84,48.63,31      C477.1,404.77,485.78,348.84,468.42,269.77z"/></g><g><path class="st6" d="M60.91,237.25c-18,71.63-18.93,133.18-18.93,133.18l-0.04-0.07c-9.45-23.59-7.54-58.87,1.62-100.59      c17.36-79.07,33.75-151.62,84.86-156.81c51.11-5.19,84.86-1.89,84.86-1.89h85.44c0,0,19.32-1.88,50.84-0.56      c-57.17,1.05-183.46,3.9-211.88,8.83C100.64,125.77,78.91,165.62,60.91,237.25z M394.62,397.77      c-5.57-7.51-11.61-18.56-16.78-34.79c-14.14-44.36-18.77-54.73-24.17-44.72C353.67,318.26,352.19,380.84,394.62,397.77z"/></g></g><g><g><path class="st28" d="M226.96,214.12c0,40.53-32.85,73.38-73.38,73.38S80.2,254.65,80.2,214.12s32.85-73.38,73.38-73.38      S226.96,173.6,226.96,214.12z M363.89,154.05c-12.14,0-21.99,9.84-21.99,21.99s9.84,21.99,21.99,21.99      c12.14,0,21.99-9.84,21.99-21.99S376.03,154.05,363.89,154.05z M363.89,243.54c-12.14,0-21.99,9.84-21.99,21.99      c0,12.14,9.84,21.99,21.99,21.99c12.14,0,21.99-9.84,21.99-21.99C385.88,253.38,376.03,243.54,363.89,243.54z M319.92,199.56      c-12.14,0-21.99,9.84-21.99,21.99s9.84,21.99,21.99,21.99c12.14,0,21.99-9.84,21.99-21.99S332.06,199.56,319.92,199.56z       M407.86,199.56c-12.14,0-21.99,9.84-21.99,21.99s9.84,21.99,21.99,21.99c12.14,0,21.99-9.84,21.99-21.99      S420.01,199.56,407.86,199.56z"/></g><g><path class="st39" d="M341.91,221.55c0,12.14-9.84,21.99-21.99,21.99s-21.99-9.84-21.99-21.99c0-1.77,0.21-3.48,0.61-5.13      c0.05,0.36,0.1,0.72,0.15,1.09c0.83,2.95,2.32,5.51,4.48,7.69c0.32,0.32,0.64,0.64,0.96,0.96c1.58,1.7,3.45,2.9,5.61,3.6      c2.08,1.09,4.31,1.59,6.71,1.5c2.4,0.09,4.64-0.41,6.71-1.5c2.16-0.7,4.03-1.9,5.61-3.6c0.91-1.18,1.82-2.35,2.72-3.53      c1.58-2.72,2.37-5.65,2.38-8.79c-0.21-1.54-0.41-3.09-0.62-4.63c-0.83-2.95-2.32-5.51-4.48-7.69l-0.18-0.18      C336.42,204.7,341.91,212.48,341.91,221.55z M363.89,198.02c12.14,0,21.99-9.84,21.99-21.99c0-9.07-5.49-16.86-13.34-20.22      c3.35,3.21,5.46,7.74,5.68,12.69c0.42,9.41-8.31,17.42-17.42,17.42c-9.76,0-17-7.98-17.42-17.42c-0.01-0.14,0.01-0.29,0.01-0.43      c-0.96,2.47-1.49,5.15-1.49,7.95C341.91,188.18,351.75,198.02,363.89,198.02z M161.2,285.77c-17.92,0-33.83-7.49-46.77-19.37      c-12.99-11.92-18.61-29.67-19.37-46.77c-0.74-16.48,7.9-35.3,19.37-46.77c12-12,29.81-19.37,46.77-19.37      c17.92,0,33.83,7.49,46.77,19.37c11.69,10.73,17.4,26.19,18.98,41.65c0-0.13,0.01-0.25,0.01-0.37      c0-40.53-32.85-73.38-73.38-73.38c-40.53,0-73.38,32.85-73.38,73.38c0,40.53,32.85,73.38,73.38,73.38      c7.98,0,15.66-1.29,22.86-3.65C171.4,285.1,166.26,285.77,161.2,285.77z M377.5,248.26c0.98,2.17,1.58,4.55,1.69,7.05      c0.42,9.41-8.31,17.42-17.42,17.42c-9.72,0-16.93-7.91-17.41-17.3c-1.57,3.02-2.46,6.46-2.46,10.1      c0,12.14,9.84,21.99,21.99,21.99c12.14,0,21.99-9.84,21.99-21.99C385.88,258.52,382.6,252.28,377.5,248.26z M422.42,205.08      c0.81,1.84,1.2,3.79,1.12,5.86v0.96c-0.01,3.14-0.8,6.07-2.38,8.79c-0.91,1.18-1.82,2.35-2.72,3.53      c-2.17,2.16-4.74,3.65-7.69,4.48c-1.54,0.21-3.09,0.41-4.63,0.62c-2.4,0.09-4.64-0.41-6.71-1.5c-2.16-0.7-4.03-1.9-5.61-3.6      c-1.7-1.58-2.9-3.45-3.6-5.61c-1.09-2.08-1.59-4.31-1.5-6.71v-0.96c0-0.07,0.01-0.13,0.01-0.2c-1.8,3.19-2.84,6.87-2.84,10.8      c0,12.14,9.84,21.99,21.99,21.99s21.99-9.84,21.99-21.99C429.85,214.99,426.98,209.11,422.42,205.08z"/></g></g><g><g><path class="st1" d="M195.53,198.21h-26.04v-26.04c0-8.79-7.12-15.91-15.91-15.91h0c-8.79,0-15.91,7.12-15.91,15.91v26.04      h-26.04c-8.79,0-15.91,7.12-15.91,15.91v0c0,8.79,7.12,15.91,15.91,15.91h26.04v26.04c0,8.79,7.12,15.91,15.91,15.91h0      c8.79,0,15.91-7.12,15.91-15.91v-26.04h26.04c8.79,0,15.91-7.12,15.91-15.91v0C211.44,205.34,204.32,198.21,195.53,198.21z"/></g><g><path class="st2" d="M195.53,230.04h-26.04v26.04c0,8.79-7.12,15.91-15.91,15.91h0c-8.79,0-15.91-7.12-15.91-15.91v-4.52      c0,0,4.22,9.8,15.91,5.76c11.69-4.04,7.4-35.76,7.4-35.76s33.76,6.3,41.57-3.42c3.79-4.71,4.3-10.69,3.83-15.6      c3.1,2.9,5.05,7.02,5.05,11.6v0C211.44,222.91,204.32,230.04,195.53,230.04z M95.89,216.27c1.05,7.77,7.69,13.76,15.75,13.76      h26.04v-8.49C137.67,221.55,98.26,222.87,95.89,216.27z M157.56,164.98c1.45,8.51,0,33.04,0,33.04l11.94,0.19v-26.04      c0-8.12-6.08-14.8-13.94-15.78C156.24,158.7,156.98,161.61,157.56,164.98z"/></g></g><g><g><path class="st28" d="M325.13,316.05v-8.36c0-17.04-13.82-30.86-30.86-30.86h-59.14c-17.04,0-30.86,13.82-30.86,30.86v8.36      c0,0.74,0.04,1.48,0.09,2.21h120.68C325.09,317.53,325.13,316.8,325.13,316.05z"/></g><g><path class="st39" d="M295.24,276.86c8.63,4.4,16.87,11.58,6.75,20.69c-14.17,12.74-75.38,8.02-97.41,5.85      c-0.2,1.4-0.3,2.84-0.3,4.3v8.36c0,0.74,0.04,1.48,0.09,2.21h120.68c0.05-0.73,0.09-1.46,0.09-2.21v-8.36      C325.13,290.98,311.83,277.38,295.24,276.86z"/></g></g><g><g><path class="st6" d="M360.49,169.34c-6.45,0-6.43-10,0-10C366.93,159.34,366.92,169.34,360.49,169.34z M403.56,203.05      c-6.43,0-6.45,10,0,10C409.99,213.05,410,203.05,403.56,203.05z M362.41,247.41c-6.43,0-6.45,10,0,10      C368.85,257.41,368.86,247.41,362.41,247.41z M315.49,203.7c-6.43,0-6.45,10,0,10C321.92,213.7,321.93,203.7,315.49,203.7z"/></g><g><path class="st6" d="M153.34,166.91c0.03,0.69-0.12,1.33-0.43,1.93c-0.2,0.62-0.55,1.16-1.03,1.61      c-0.45,0.49-0.99,0.83-1.61,1.03c-0.6,0.31-1.24,0.46-1.93,0.43h-0.64c-0.9,0-1.74-0.23-2.52-0.68      c-0.34-0.26-0.67-0.52-1.01-0.78c-0.62-0.62-1.05-1.36-1.29-2.21c-0.06-0.44-0.12-0.89-0.18-1.33      c-0.03-0.69,0.12-1.33,0.43-1.93c0.2-0.62,0.55-1.16,1.03-1.61c0.45-0.49,0.99-0.83,1.61-1.03c0.6-0.31,1.24-0.46,1.93-0.43      h0.64c0.9,0,1.74,0.23,2.52,0.68c0.34,0.26,0.67,0.52,1.01,0.78c0.62,0.62,1.05,1.36,1.29,2.21      C153.22,166.02,153.28,166.47,153.34,166.91z M106.56,205.62c-6.43,0-6.45,10,0,10C112.99,215.62,113,205.62,106.56,205.62z"/></g><g><path class="st6" d="M233.06,285.84c0.03,0.69-0.12,1.33-0.43,1.93c-0.2,0.62-0.55,1.16-1.03,1.61      c-0.45,0.49-0.99,0.83-1.61,1.03c-0.6,0.31-1.24,0.46-1.93,0.43h-0.64c-0.9,0-1.74-0.23-2.52-0.68      c-0.34-0.26-0.67-0.52-1.01-0.78c-0.62-0.62-1.05-1.36-1.29-2.21c-0.06-0.44-0.12-0.89-0.18-1.33      c-0.03-0.69,0.12-1.33,0.43-1.93c0.2-0.62,0.55-1.16,1.03-1.61c0.45-0.49,0.99-0.83,1.61-1.03c0.6-0.31,1.24-0.46,1.93-0.43      h0.64c0.9,0,1.74,0.23,2.52,0.68c0.34,0.26,0.67,0.52,1.01,0.78c0.62,0.62,1.05,1.36,1.29,2.21      C232.94,284.95,233,285.4,233.06,285.84z M215.84,292.05c-1.93,0-1.93,3,0,3C217.77,295.05,217.78,292.05,215.84,292.05z"/></g></g></g></g></svg>